<?xml version="1.0" encoding="utf-8"?>
<!-- Generator: Adobe Illustrator 16.0.3, SVG Export Plug-In . SVG Version: 6.00 Build 0)  -->
<!DOCTYPE svg PUBLIC "-//W3C//DTD SVG 1.1//EN" "http://www.w3.org/Graphics/SVG/1.1/DTD/svg11.dtd">
<svg version="1.1" id="graphics" xmlns="http://www.w3.org/2000/svg" xmlns:xlink="http://www.w3.org/1999/xlink" x="0px" y="0px"
	 width="1559.061px" height="1559.061px" viewBox="0 0 1559.061 1559.061" enable-background="new 0 0 1559.061 1559.061"
	 xml:space="preserve">
<g>
	<path fill-rule="evenodd" clip-rule="evenodd" fill="#1E4678" d="M759.754,553.072c40.991,0,81.985-0.002,122.974,0.003
		c2.665,0.001,5.345-0.095,7.992,0.123c3.96,0.324,6.737,3.131,7,7.143c0.218,3.319,0.084,6.662,0.125,9.995
		c0.047,3.911,1.455,6.987,4.916,9.202c2.217,1.42,4.062,3.423,6.074,5.158c3.791,3.266,5.071,7.417,5.365,12.382
		c0.508,8.509-2.557,15.368-9.527,19.637c-7.476,4.579-6.764,6.416-6.856,13.988c-0.053,4.33,0.029,8.667-0.185,12.989
		c-0.147,2.984-2.128,4.894-5.134,5.132c-2.651,0.213-5.325,0.174-7.989,0.178c-24.995,0.039-49.989,0.053-74.984,0.105
		c-2.656,0.006-5.332,0.063-7.965,0.379c-2.188,0.264-3.662,2.57-3.741,5.248c-0.068,2.33,0.797,3.868,2.942,4.679
		c1.533,0.579,3.154,1.084,4.772,1.233c2.313,0.214,4.66,0.084,6.993,0.082c26.328-0.02,52.655-0.059,78.982-0.05
		c5.33,0.001,10.684-0.095,15.983,0.358c4.695,0.4,8.41-0.773,11.607-4.287c3.586-3.939,7.393-7.684,11.2-11.414
		c2.249-2.204,3.679-2.526,6.231-0.9c7.565,4.818,15.097,9.703,22.45,14.836c3.36,2.346,3.538,4.92,1.292,8.716
		c-1.01,1.706-2.107,3.429-3.478,4.841c-6.952,7.158-13.506,14.732-21.706,20.598c-3.563,2.547-3.744,4.095-1.903,8.588
		c0.877,2.142,1.83,4.268,2.487,6.479c0.599,2.016-0.914,4.215-2.952,4.352c-3.315,0.222-6.648,0.289-9.976,0.32
		c-5.331,0.051-10.674,0.231-15.993-0.039c-5.133-0.262-9.022,3.376-8.967,8.392c0.162,14.328-0.011,28.661,0.115,42.99
		c0.042,4.775,1.831,6.364,6.921,6.476c6.661,0.145,13.329,0.035,19.994,0.076c2.329,0.014,4.676-0.004,6.981,0.269
		c2.774,0.326,4.563,3.397,3.673,5.98c-0.216,0.627-0.462,1.259-0.802,1.824c-4.886,8.122-2.789,9.269,3.313,15.087
		c4.083,3.895,8.02,8.008,11.544,12.406c5.932,7.404,8.979,16.252,11.48,25.271c1.176,4.238-1.414,8.485-5.753,8.643
		c-8.315,0.303-16.656,0.236-24.971-0.086c-1.69-0.065-3.584-1.671-4.888-3.04c-1.334-1.401-1.951-3.456-3.07-5.097
		c-1.677-2.457-3.414-4.887-5.316-7.17c-1.886-2.263-4.602-3.1-7.236-1.999c-5.48,2.29-11.159,1.604-16.771,1.607
		c-80.982,0.03-161.965-0.009-242.947-0.024c-7.665-0.001-15.33,0.09-22.995,0.04c-5.299-0.035-10.576,0.274-15.783-1.617
		c-3.762-1.367-7.21-0.177-9.398,3.583c-1.672,2.871-3.642,5.583-5.137,8.537c-1.684,3.321-4.341,5.228-7.84,5.326
		c-7.989,0.225-15.992,0.178-23.983,0.01c-3.414-0.072-5.333-2.405-5.148-6.049c0.134-2.625,0.48-5.32,1.267-7.816
		c4.299-13.658,11.646-25.273,23.187-34.05c1.532-1.165,2.865-2.755,3.854-4.409c0.592-0.989,0.768-2.643,0.376-3.725
		c-1.015-2.807-2.5-5.438-3.694-8.186c-0.804-1.847,0.408-4.33,2.357-4.696c1.939-0.364,3.936-0.579,5.91-0.599
		c7.665-0.076,15.331,0.024,22.994-0.086c4.721-0.067,5.546-0.799,6.621-5.68c0.496-2.25,0.774-4.594,0.791-6.898
		c0.079-10.997-0.125-21.998,0.084-32.991c0.173-9.154-3.267-12.659-12.634-12.29c-5.656,0.223-11.329,0.068-16.994,0.026
		c-1.994-0.015-3.999-0.098-5.976-0.34c-2.179-0.267-3.526-2.304-2.877-4.298c0.721-2.211,1.594-4.371,2.415-6.549
		c1.175-3.115,0.772-5.925-1.772-8.184c-1.985-1.762-4.113-3.364-6.159-5.059c-6.946-5.756-13.333-12.044-18.407-19.561
		c-0.556-0.823-1.035-1.701-1.505-2.579c-1.209-2.259-0.927-4.729,0.851-6.376c0.967-0.896,2.085-1.645,3.19-2.375
		c6.384-4.213,12.695-8.537,19.205-12.545c3.597-2.214,6.021-1.786,8.999,0.996c1.445,1.352,2.563,3.049,3.907,4.517
		c2.242,2.445,4.367,5.042,6.875,7.185c2.564,2.189,5.634,3.138,9.212,3.113c31.989-0.218,63.979-0.273,95.97-0.377
		c2.666-0.01,5.336,0.067,7.996-0.07c1.296-0.066,2.69-0.299,3.828-0.875c1.811-0.916,3.208-2.393,3.604-4.51
		c0.313-1.668-1.722-4.82-3.838-5.352c-2.221-0.557-4.576-0.777-6.875-0.792c-15.663-0.093-31.327-0.1-46.99-0.12
		c-9.664-0.014-19.329-0.002-28.993-0.003c-1.666-0.001-3.334,0.039-4.999-0.015c-6.493-0.213-7.884-1.673-8.071-8.533
		c-0.064-2.33-0.008-4.665-0.013-6.998c-0.004-1.666,0.075-3.339-0.046-4.997c-0.336-4.572-2.054-8.532-6.226-10.749
		c-4.362-2.317-7.154-5.824-9.194-10.155c-4.124-8.76-1.801-19.121,5.778-25.287c1.023-0.833,2.245-1.422,3.375-2.123
		c4.36-2.708,6.213-6.759,6.296-11.758c0.053-3.331-0.021-6.671,0.21-9.99c0.208-2.983,2.192-4.947,5.133-5.151
		c2.986-0.207,5.992-0.173,8.99-0.174C678.438,553.069,719.097,553.072,759.754,553.072z M759.893,815.163
		c37.955,0,75.91,0,113.865-0.001c2.33,0,4.662,0.043,6.991-0.015c6.51-0.163,8.2-1.767,8.667-8.175
		c0.074-0.995,0.036-1.997,0.036-2.996c0.002-40.618,0.013-81.236-0.021-121.854c-0.002-2.31-0.114-4.678-0.621-6.917
		c-1.002-4.423-3.062-5.922-7.785-6.124c-1.66-0.071-3.327-0.028-4.993-0.028c-77.242-0.001-154.483-0.002-231.725,0.002
		c-2.33,0-4.667-0.063-6.988,0.096c-3.134,0.212-5.015,1.966-5.341,4.899c-0.183,1.648-0.197,3.321-0.197,4.983
		c-0.009,42.282-0.009,84.565,0.007,126.85c0.001,1.658,0.07,3.331,0.291,4.973c0.251,1.873,2.094,3.801,3.985,3.962
		c2.977,0.254,5.976,0.331,8.967,0.332C683.317,815.17,721.605,815.163,759.893,815.163z M760.813,562.637
		c-33.646,0-67.292,0-100.938,0.002c-5.996,0-11.993-0.05-17.989,0.016c-9.273,0.101-10.067,0.881-10.095,10.438
		c-0.051,18.655-0.018,37.311-0.016,55.965c0,1.333-0.045,2.671,0.051,3.996c0.331,4.62,2.933,7.512,7.603,7.541
		c19.654,0.127,39.312,0.164,58.962-0.031c5.59-0.055,7.312-2.371,7.457-8.299c0.073-2.996,0.018-5.996,0.031-8.994
		c0.008-1.665-0.068-3.34,0.085-4.992c0.367-3.977,3.094-6.648,7.105-7.057c0.99-0.101,1.996-0.073,2.995-0.073
		c29.648-0.003,59.298-0.002,88.945-0.001c0.333,0,0.666-0.006,0.999,0.005c6.5,0.215,7.9,1.654,8.106,8.497
		c0.082,2.663,0.001,5.33,0.024,7.995c0.017,1.664-0.054,3.346,0.154,4.989c0.574,4.538,3.224,7.273,7.638,7.871
		c1.641,0.223,3.324,0.168,4.988,0.169c17.323,0.009,34.646,0.007,51.969-0.001c1.331,0,2.666-0.016,3.992-0.117
		c2.592-0.199,4.142-1.713,5.258-3.99c1.383-2.822,1.36-5.787,1.358-8.789c-0.007-17.988-0.005-35.978-0.013-53.967
		c0-1.331,0.039-2.674-0.103-3.992c-0.554-5.151-2.485-6.965-7.642-7.14c-2.663-0.091-5.331-0.038-7.996-0.038
		C836.101,562.637,798.457,562.638,760.813,562.637z M760.809,620.704c-10.984,0-21.968,0.015-32.952-0.003
		c-13.265-0.022-12.567-0.563-12.331,13.634c0.006,0.332,0.048,0.664,0.079,0.995c0.213,2.273,1.594,3.747,3.648,4.213
		c2.557,0.579,5.213,0.994,7.827,1.003c22.634,0.075,45.267,0.046,67.9,0.04c1.33,0,2.672,0.043,3.989-0.104
		c3.979-0.441,6.536-3.15,6.776-7.299c0.134-2.319,0.108-4.664-0.056-6.982c-0.22-3.125-1.991-5.026-4.95-5.296
		c-2.315-0.21-4.653-0.188-6.98-0.192C782.775,620.696,771.792,620.706,760.809,620.704z M623.639,687.217
		c-0.074-0.002-0.148-0.006-0.223-0.008c0-2.979,0.207-5.977-0.074-8.927c-0.182-1.917-0.949-3.817-1.686-5.631
		c-0.717-1.76-3.641-2.242-5.118-0.959c-0.739,0.642-1.575,1.276-2.055,2.097c-4.67,7.98-9.315,15.977-13.876,24.02
		c-1.656,2.922,0.008,6.49,3.23,6.765c3.616,0.306,7.269,0.173,10.904,0.264c5.601,0.141,7.19-2.173,8.175-6.775
		C623.667,694.556,623.435,690.84,623.639,687.217z M909.416,704.964c2.703-0.152,5.702-0.173,8.661-0.532
		c2.47-0.299,3.692-3,2.651-5.336c-0.135-0.304-0.271-0.61-0.437-0.897c-4.322-7.475-8.607-14.972-13.011-22.398
		c-0.83-1.4-2.06-2.597-3.238-3.75c-1.715-1.675-4.971-0.688-5.552,1.713c-0.384,1.593-0.612,3.259-0.635,4.896
		c-0.075,5.657-0.053,11.316-0.016,16.976c0.011,1.657,0.09,3.328,0.319,4.969c0.267,1.904,2.073,3.715,4,3.928
		C904.468,704.788,906.802,704.819,909.416,704.964z M623.969,797.059c-0.63-4.219-1.215-8.447-1.906-12.656
		c-0.364-2.223-1.777-3.574-4.05-3.605c-4.96-0.068-9.925-0.101-14.881,0.063c-2.628,0.086-4.059,2.592-2.737,5.025
		c4.41,8.127,8.93,16.197,13.624,24.163c0.951,1.614,2.805,2.722,4.318,3.971c0.93,0.766,2.944,0.005,3.227-1.207
		C622.766,807.658,623.963,802.498,623.969,797.059z M897.906,797.201c-0.011,0-0.021,0-0.031,0c0,3.98-0.094,7.964,0.055,11.938
		c0.046,1.251,0.633,2.525,1.162,3.702c0.64,1.424,3.141,1.995,4.299,1.034c1.011-0.839,2.222-1.624,2.844-2.718
		c4.742-8.345,9.351-16.767,14.028-25.148c1.458-2.613-0.231-4.933-2.638-5.055c-4.954-0.254-9.935-0.256-14.894-0.072
		c-2.86,0.107-4.64,2.202-4.783,5.378C897.777,789.9,897.906,793.555,897.906,797.201z M897.735,599.004
		c0.171,1.951,0.158,3.97,0.599,5.885c0.165,0.72,1.322,1.563,2.124,1.687c0.816,0.124,2.094-0.308,2.591-0.947
		c3.584-4.608,3.558-9.022-0.086-13.541c-0.496-0.615-1.807-0.981-2.616-0.819c-0.796,0.16-1.885,1.035-2.046,1.772
		C897.88,594.963,897.897,596.979,897.735,599.004z M622.228,599.168c-0.09-1.822-0.069-3.479-0.285-5.103
		c-0.173-1.297-0.635-2.885-2.273-2.582c-1.114,0.206-2.563,1.129-2.984,2.108c-1.611,3.756-1.871,7.695,0.454,11.273
		c0.551,0.848,2.166,1.258,3.325,1.327c0.442,0.026,1.237-1.422,1.402-2.287C622.173,602.303,622.134,600.636,622.228,599.168z"/>
	<path fill-rule="evenodd" clip-rule="evenodd" fill="#32BF5C" d="M437.051,1032.881c-9.757-0.198-9.565-0.165-11.353,10.189
		c-2.631,15.211-9.1,28.369-21.272,38.385c-7.665,6.305-16.382,7.093-24.862,1.901c-0.564-0.346-1.021-0.868-1.583-1.218
		c-4.04-2.506-6.832-1.222-7.882,3.633c-2.174,10.053-4.363,20.103-6.474,30.169c-0.51,2.434-1.799,4.241-3.7,5.722
		c-1.495,1.165-4.519,0.47-4.996-1.415c-0.471-1.866-0.813-3.957-0.457-5.804c0.883-4.555,2.302-9.002,3.324-13.533
		c4.089-18.125,8.07-36.274,12.168-54.396c2.562-11.328,5.234-22.633,7.929-33.93c0.377-1.582,0.973-3.179,1.799-4.57
		c1.606-2.7,4.008-3.386,6.639-1.372c2.761,2.114,5.18,2.476,8.216,0.825c2.023-1.099,4.235-2.121,6.476-2.5
		c7.31-1.235,14-0.236,18.648,6.441c1.705,2.45,3.391,4.914,5.138,7.335c1.849,2.561,4.254,4.173,7.534,4.228
		c2.665,0.045,5.329,0.205,7.992,0.191c11.269-0.061,10.703-1.454,13.304-10.968c2.448-8.954,4.185-18.102,6.254-27.159
		c0.295-1.286,0.616-2.585,1.114-3.801c0.705-1.727,3.214-2.795,5.058-2.306c1.909,0.507,3.509,2.657,3.189,4.488
		c-0.57,3.268-1.133,6.544-1.884,9.772c-4.206,18.099-8.642,36.146-12.617,54.295c-1.412,6.447-3.458,12.83-3.248,19.612
		c0.124,4.011,1.239,7.454,4.946,9.072c4.115,1.796,8.556,1.897,12.302-1.091c5.679-4.529,9.241-9.989,9.325-17.836
		c0.141-13.24,4.116-25.545,11.849-36.377c2.679-3.754,5.905-7.265,9.432-10.232c6.469-5.443,14.238-7.012,22.508-5.688
		c1.871,0.3,3.783,1.248,5.357,2.353c6.526,4.575,9.768,13.848,6.934,22.121c-4.166,12.159-11.574,19.747-24.587,21.808
		c-4.997,0.792-9.788,1.751-14.703-0.039c-0.595-0.217-1.32-0.092-1.986-0.092c-2.418-0.002-4.925,1.742-4.983,4.001
		c-0.104,3.973-0.303,8.059,0.477,11.906c0.89,4.396,3.754,7.693,8.196,9.362c4.788,1.8,9.398,2.29,14.521,0.671
		c9.234-2.92,16.557-8.145,22.534-15.667c10.384-13.067,15.839-28.331,20.176-44.131c0.439-1.6,0.765-3.231,1.238-4.819
		c2.084-6.99,2.104-7.022,9.396-5.628c3.022,0.577,5.962,0.571,8.825-0.628c5.117-2.143,10.486-1.77,15.773-1.319
		c6.489,0.553,11.225,3.983,13.779,10.036c1.682,3.984,2.235,7.967,1.601,12.523c-1.196,8.58-3.42,16.916-4.961,25.402
		c-0.711,3.914-1.425,7.85-2.524,11.664c-1.033,3.581,0.532,6.531,1.76,9.54c0.439,1.077,1.764,2.105,2.914,2.528
		c5.6,2.057,12.725-0.265,15.874-5.281c3.205-5.108,5.203-10.713,6.438-16.655c1.349-6.489,2.931-12.943,4.746-19.317
		c2.82-9.898,8.756-17.834,16.33-24.631c8.4-7.538,17.625-8.257,27.399-2.129c0.843,0.528,1.577,1.258,2.463,1.684
		c1.354,0.649,2.668,0.231,3.534-0.896c2.074-2.701,2.849-5.876,3.489-9.2c1.065-5.534,2.474-11.01,3.972-16.446
		c0.411-1.491,1.408-3.059,2.601-4.018c0.815-0.66,2.506-0.63,3.661-0.336c0.701,0.179,1.572,1.433,1.595,2.226
		c0.077,2.637,0.162,5.361-0.395,7.913c-3.183,14.589-6.519,29.144-9.866,43.695c-1.637,7.112-3.699,14.14-5.014,21.308
		c-0.771,4.207-0.753,8.633-0.494,12.924c0.133,2.189,1.312,4.471,2.527,6.387c0.812,1.278,2.389,2.445,3.853,2.871
		c7.498,2.182,13.468-0.347,18.201-6.741c2.465-3.329,3.865-7.026,4.866-10.842c1.768-6.735,2.983-13.613,4.596-20.394
		c0.53-2.227,1.337-4.467,2.461-6.449c0.877-1.547,2.754-1.691,4.478-1.365c1.595,0.301,2.844,1.86,2.729,3.646
		c-0.128,1.976-0.349,3.966-0.771,5.896c-1.418,6.482-2.969,12.936-4.417,19.411c-1.043,4.67-1.1,9.245,1.554,13.516
		c1.313,2.113,3.083,3.504,5.608,3.669c1.989,0.13,4.015,0.322,5.979,0.097c4.529-0.523,8.147-2.573,10.462-6.719
		c3.121-5.591,5.323-11.413,5.61-17.905c0.594-13.428,5.768-25.181,13.727-35.756c3.008-3.995,6.883-7.126,11.403-9.543
		c5.002-2.674,10.266-3.232,15.503-2.073c3.097,0.686,5.848,2.95,8.741,4.529c2.768,1.511,4.466,1.092,5.331-1.924
		c1.919-6.69,3.512-13.475,5.306-20.203c0.594-2.229,1.278-4.449,2.14-6.587c0.668-1.663,2.5-2.385,4.117-1.97
		c1.786,0.459,2.957,1.689,3.301,3.369c0.25,1.234,0.022,2.636-0.269,3.899c-4.098,17.783-8.253,35.554-12.37,53.332
		c-1.423,6.143-2.883,12.279-4.129,18.457c-0.928,4.596-1.232,9.199,0.745,13.715c1.488,3.393,3.81,5.154,7.575,5.497
		c6.415,0.583,10.974-1.735,13.757-7.618c0.989-2.094,2.191-4.121,3.551-5.994c0.742-1.025,1.943-1.785,3.064-2.452
		c1.659-0.987,4.403,0.593,4.496,2.516c0.048,0.987,0.232,2.071-0.082,2.957c-1.79,5.048-4.109,9.763-8.024,13.624
		c-8.795,8.673-20.465,8.961-29.174,0.285c-5.297-5.276-5.016-6.782-12.821-0.35c-2.524,2.081-5.541,3.663-8.522,5.072
		c-6.305,2.98-12.311,2.003-17.847-2.084c-2.35-1.736-3.971-4.537-7.474-4.492c-3.019,0.039-4.619,2.42-6.892,3.688
		c-4.063,2.268-8.07,4.547-13.025,4.548c-4.481,0.001-8.582-0.819-12.269-3.41c-1.362-0.955-2.709-1.932-4.108-2.824
		c-2.115-1.348-4.127-1.736-6.404,0.009c-2.096,1.606-4.436,2.967-6.824,4.105c-8.344,3.978-16.321,2.649-23.084-3.46
		c-2.385-2.155-3.954-6.392-7.604-5.644c-2.585,0.531-4.558,3.634-7.028,5.251c-2.769,1.813-5.665,3.55-8.724,4.776
		c-5.645,2.264-11.11,1.443-16.128-2.021c-0.816-0.563-1.595-1.229-2.251-1.972c-5.063-5.729-7.371-6.319-12.96-0.739
		c-2.036,2.033-4.989,3.309-7.723,4.456c-11.292,4.74-23.896-2.954-24.719-15.182c-0.242-3.6,0.104-7.336,0.811-10.883
		c1.943-9.758,4.252-19.441,6.338-29.172c0.414-1.936,0.432-3.952,0.714-5.92c0.803-5.602-5.832-11.732-11.371-11.394
		c-9.045,0.553-15.672,4.803-20.643,12.14c-3.47,5.117-4.539,11.063-5.749,16.886c-2.363,11.367-4.313,22.819-6.506,34.223
		c-0.375,1.949-1.043,3.851-1.685,5.738c-0.816,2.404-2.054,3.206-4.439,3.065c-2.144-0.125-3.624-1.597-3.478-3.969
		c0.185-2.967,0.792-5.903,1.043-8.868c0.073-0.87-0.269-2.431-0.728-2.558c-1.14-0.313-2.701-0.387-3.645,0.184
		c-1.676,1.014-3.08,2.516-4.494,3.918c-5.544,5.503-12.093,9.131-19.549,11.506c-9.89,3.149-18.994,2.354-27.414-3.953
		c-0.267-0.2-0.517-0.421-0.773-0.634c-2.971-2.477-5.892-2.411-9.109-0.255c-3.023,2.025-6.112,4.219-9.501,5.383
		c-8.888,3.058-17.153,0.811-22.222-6.486c-3.529-5.083-4.471-11.045-3.12-17.187c1.426-6.479,3.003-12.927,4.431-19.407
		c0.426-1.931,0.7-3.914,0.818-5.887c0.13-2.182-1.346-3.698-3.658-3.81C441.719,1032.793,439.383,1032.881,437.051,1032.881z
		 M417.794,1033.56c0.595-4.519-0.521-8.839-2.38-12.642c-4.319-8.836-9.747-9.68-16.849-5.393c-1.124,0.678-2.123,1.586-3.11,2.466
		c-12.5,11.144-17.006,25.654-17.321,41.808c-0.092,4.708,1.724,9.066,3.901,13.214c1.353,2.574,3.526,3.779,6.391,4.072
		c5.372,0.55,9.716-1.467,13.45-5.126C412.65,1061.402,416.808,1048.112,417.794,1033.56z M753.876,1057.221
		c-0.423,4.842,1.114,9.268,2.897,13.572c2.243,5.405,5.231,7.223,11.025,6.177c2.835-0.512,5.873-1.713,8.07-3.515
		c3.037-2.488,5.731-5.593,7.919-8.87c5.254-7.869,7.914-16.841,9.52-26.056c1.171-6.726-0.106-13.261-3.305-19.344
		c-2.092-3.98-7.209-6.955-10.602-5.832c-4.446,1.471-8.762,3.433-11.795,7.189C758.97,1031.237,754.605,1043.57,753.876,1057.221z
		 M633.888,1056.373c0,2.658-0.39,5.392,0.104,7.955c0.554,2.871,1.573,5.773,2.999,8.323c1.708,3.063,4.627,4.513,8.315,4.535
		c7.112,0.044,11.95-3.915,15.664-9.213c8.257-11.78,12.387-24.813,11.103-39.396c-0.398-4.505-1.999-8.397-4.524-11.948
		c-2.196-3.09-6.299-4.136-9.787-2.811c-5.074,1.93-9.555,4.79-12.746,9.229C637.87,1032.982,633.449,1043.9,633.888,1056.373z
		 M502.673,1043.1c0.004-0.101,0.008-0.201,0.012-0.302c1.66,0,3.341,0.166,4.979-0.026c10.308-1.215,18.874-11.406,18.182-21.497
		c-0.142-2.064-0.621-4.012-2.304-5.306c-3.314-2.548-6.934-3.825-11.156-2.311c-10.541,3.779-16.443,11.869-20.39,21.798
		c-0.12,0.3-0.105,0.652-0.159,0.979c-0.457,2.736,1.294,5.647,3.9,6.072C498.021,1042.88,500.358,1042.916,502.673,1043.1z"/>
	<path fill-rule="evenodd" clip-rule="evenodd" fill="#1E4678" d="M694.706,440.743c3.825-0.216,9.321,0.723,14.355,3.74
		c3.529,2.114,7.368,2.935,11.464,2.826c4.873-0.128,6.763-1.753,7.063-6.402c0.151-2.323,0.055-4.662,0.223-6.982
		c0.188-2.583,1.642-4.435,4.081-5.117c2.527-0.708,5.166-1.385,7.764-1.41c13.981-0.135,27.967-0.064,41.951-0.061
		c0.998,0,2.013-0.071,2.992,0.072c7.06,1.04,9.406,3.618,8.996,9.493c-0.069,0.992-0.028,1.998,0.012,2.995
		c0.264,6.558,1.335,7.453,7.604,7.439c3.85-0.009,7.029-1.685,10.389-3.132c10.19-4.389,20.646-4.853,31.099-1.188
		c6.98,2.448,13.257,6.137,17.468,12.567c3.151,4.812,7.602,6.896,13.355,7.45c11.951,1.152,23.461,4.337,34.498,9.096
		c1.805,0.779,3.511,1.884,5.089,3.067c2.16,1.62,2.62,3.681,1.445,6.128c-1.439,2.998-2.965,5.959-4.571,8.872
		c-2.085,3.78-4.176,7.566-6.483,11.212c-1.229,1.942-2.815,3.693-4.428,5.347c-1.496,1.528-3.345,2.063-5.443,0.997
		c-6.297-3.198-13.212-4.289-19.971-5.982c-5.576-1.396-9.611-0.045-12.918,4.692c-3.305,4.728-8.233,7.677-13.11,10.552
		c-4.664,2.749-9.668,4.392-15.176,4.193c-1.995-0.071-3.996-0.032-5.992,0.027c-5.431,0.163-10.565-0.85-15.346-3.566
		c-3.207-1.822-6.57-3.094-10.413-2.971c-4.783,0.153-6.797,1.777-7.036,6.434c-0.152,2.99-0.268,6.006-0.046,8.984
		c0.371,4.992-3.569,9.26-8.503,8.85c-0.66-0.056-1.331,0.01-1.996,0.01c-15.316,0.002-30.632,0.057-45.948-0.021
		c-8.199-0.042-9.314-1.197-9.518-9.068c-0.087-3.327,0.02-6.663-0.185-9.98c-0.183-2.964-2.203-4.811-5.162-5.091
		c-3.731-0.354-7.252,0.22-10.6,2.045c-6.929,3.779-14.426,4.513-22.212,4.444c-9.526-0.082-17.435-3.636-24.313-9.888
		c-2.213-2.011-4.37-4.135-6.249-6.452c-3.167-3.907-7.173-4.55-11.681-3.433c-4.508,1.118-8.979,2.388-13.445,3.666
		c-1.913,0.547-3.753,1.347-5.66,1.918c-4.409,1.32-7.377,0.57-9.46-2.975c-4.04-6.876-7.817-13.906-11.668-20.893
		c-0.474-0.861-0.804-1.824-1.063-2.777c-0.735-2.707,0.417-5.682,2.949-6.732c8.276-3.434,16.508-7.075,25.398-8.672
		c5.215-0.937,10.48-1.619,15.742-2.253c2.451-0.296,4.458-1.257,6.139-2.979c2.094-2.144,4.152-4.32,6.212-6.496
		C670.646,444.627,680.814,440.574,694.706,440.743z M688.906,512.871c2.802,0,3.467,0.022,4.131-0.003
		c5.382-0.205,7.343-2.246,6.965-7.337c-0.123-1.654-0.327-3.313-0.65-4.939c-2.611-13.166-2.637-26.316,0.062-39.479
		c0.398-1.941,0.564-3.952,0.623-5.938c0.104-3.477-1.844-5.571-5.343-5.918c-4.03-0.4-7.865,0.347-11.741,1.543
		c-11.063,3.416-18.208,10.525-21.336,21.674c-0.269,0.959-0.639,1.89-0.887,2.853c-1.012,3.934-1.212,7.893,0.163,11.765
		c1.218,3.428,2.336,6.945,4.04,10.134C670.472,507.592,680.069,511.445,688.906,512.871z M860.022,481.302
		c0.051-17.469-12.686-31.019-30.194-32.12c-2.708-0.171-5.28,0.197-7.67,1.644c-1.603,0.972-2.301,2.325-2.187,4.115
		c0.063,0.985,0.198,1.988,0.476,2.934c3.978,13.664,4.26,27.446,1.323,41.325c-0.479,2.266-1.287,4.464-1.72,6.736
		c-0.729,3.836,1.334,6.413,5.271,6.851C845.412,515.017,861.563,496.427,860.022,481.302z M813.822,480.872
		c-0.031,0-0.063,0-0.093,0c0-4.321,0.255-8.665-0.096-12.958c-0.21-2.573-1.177-5.146-2.16-7.573
		c-0.783-1.936-2.551-3.173-4.697-3.209c-6.646-0.114-13.298-0.157-19.945-0.064c-2.931,0.041-4.913,1.914-6.238,4.354
		c-0.617,1.139-0.865,2.5-1.162,3.788c-2.732,11.88-2.205,23.71,0.699,35.472c0.741,3,3.068,4.244,5.982,4.293
		c5.984,0.1,11.973,0.045,17.96,0.121c5.829,0.074,7.075-1.892,8.733-6.4c0.673-1.828,0.901-3.887,0.976-5.854
		C813.923,488.856,813.822,484.863,813.822,480.872z M741.894,481.492h-0.016c0-4.33,0.232-8.679-0.087-12.986
		c-0.192-2.586-1.07-5.172-1.962-7.643c-0.858-2.376-2.824-3.765-5.373-3.809c-6.33-0.108-12.663-0.159-18.992-0.05
		c-3.78,0.065-6.41,2.31-7.314,5.777c-3.164,12.131-3.169,24.365,0.009,36.489c0.899,3.434,3.54,5.688,7.344,5.753
		c5.996,0.102,11.996,0.02,17.995,0.027c3.418,0.005,5.736-1.629,6.772-4.831c0.709-2.191,1.411-4.467,1.554-6.74
		C742.074,489.499,741.894,485.49,741.894,481.492z"/>
	<path fill-rule="evenodd" clip-rule="evenodd" fill="#32BF5C" d="M1095.635,1056.724c0,2.331-0.005,4.661,0.001,6.991
		c0.008,3.111,1.196,5.867,2.774,8.435c3.264,5.31,10.68,6.985,15.673,3.161c5.573-4.264,10.395-9.282,13.526-15.775
		c2.124-4.402,3.261-8.596,0.987-13.346c-0.81-1.691-0.891-3.879-0.805-5.817c0.156-3.521,3.592-6.141,7.016-5.296
		c2.223,0.548,4.375,1.559,6.394,2.663c3.152,1.725,5.742,0.96,8.151-1.317c1.452-1.372,2.869-2.781,4.297-4.179
		c5.732-5.614,7.299-12.487,5.972-20.171c-0.28-1.623-1.062-3.154-1.413-4.771c-0.612-2.815,0.962-5.54,3.518-6.358
		c3.115-0.996,6.39,0.278,7.576,3.076c0.515,1.213,0.751,2.543,1.121,3.816c1.404,4.827,4.608,8,9.169,9.887
		c1.839,0.76,3.786,1.291,5.555,2.184c3.585,1.811,4.481,4.375,2.961,8.157c-2.975,7.4-6.064,14.755-8.976,22.18
		c-1.576,4.017-2.915,8.128-4.293,12.22c-0.421,1.248-0.789,2.561-0.883,3.865c-0.458,6.301,3.742,10.661,10.054,10.92
		c7.912,0.324,13.261-3.785,17.347-9.883c4.509-6.729,7.043-14.306,8.185-22.277c0.814-5.684,2.918-10.852,5.128-16.071
		c3.354-7.921,9.253-13.694,15.308-19.461c6.329-6.026,19.124-6.484,25.113-1.845c1.051,0.814,2.119,1.608,3.218,2.356
		c1.289,0.877,2.576,0.543,3.648-0.355c1.272-1.063,2.358-2.349,3.611-3.438c2.444-2.123,5.624-0.029,5.896,2.666
		c0.229,2.267,0.068,4.675-0.449,6.896c-3.388,14.537-6.995,29.022-10.383,43.56c-3.162,13.565-6.101,27.183-9.217,40.761
		c-1.575,6.869-4.27,13.364-8.141,19.207c-4.666,7.04-11.49,11.063-19.961,11.639c-6.277,0.427-12.445,0.481-18.563-2.334
		c-9.928-4.566-15.335-17.72-12.02-27.811c2.462-7.492,6.178-13.916,13.704-17.481c1.726-0.818,3.389-2.115,4.566-3.601
		c0.588-0.742,0.466-2.768-0.161-3.55c-0.62-0.772-2.64-1.335-3.415-0.89c-1.977,1.133-3.598,2.884-5.367,4.38
		c-5.224,4.417-11.018,7.192-18.087,7.167c-7.904-0.029-12.969-4.411-17.127-10.391c-0.543-0.781-0.86-1.848-0.933-2.808
		c-0.47-6.302-0.979-12.553,1.704-18.653c3.346-7.604,6.368-15.35,9.391-23.088c1.37-3.508-0.795-6.646-4.676-7.076
		c-1.725-0.191-3.381,0.157-4.355,1.756c-1.213,1.986-2.27,4.067-3.396,6.106c-3.486,6.317-8.423,11.389-15.025,14.063
		c-6.479,2.624-9.905,7.289-12.504,13.348c-1.688,3.938-4.332,7.455-6.383,11.25c-3.146,5.821-8.275,9.519-13.731,12.734
		c-9.585,5.649-21.192,2.17-26.431-7.638c-4.572-8.561-5.64-17.597-3.952-27.085c0.638-3.582,1.065-7.213,1.349-10.84
		c0.164-2.11-1.475-3.626-3.766-3.746c-2.991-0.158-5.992-0.244-8.988-0.217c-4.199,0.04-6.265,1.394-6.796,5.682
		c-0.786,6.344-2.529,12.385-4.82,18.255c-3.812,9.773-9.366,18.388-18.515,24.038c-2.776,1.717-5.926,3.135-9.094,3.855
		c-5.84,1.325-11.19-0.14-15.74-4.253c-1.197-1.083-2.593-2.301-4.078-2.624c-2.001-0.436-2.385,1.896-3.453,3.055
		c-0.447,0.486-0.876,1.017-1.407,1.395c-1.461,1.038-3.241,1.478-4.588,0.284c-1.135-1.002-2.45-2.706-2.356-4.004
		c0.236-3.272,1.151-6.508,1.919-9.729c5.688-23.876,11.429-47.739,17.095-71.621c0.995-4.194,1.684-8.459,2.579-12.678
		c0.274-1.29,0.697-2.562,1.174-3.794c1.186-3.072,3.456-4.31,6.162-3.443c2.003,0.641,2.851,2.795,2.168,5.913
		c-0.923,4.209-2.114,8.366-2.865,12.603c-0.519,2.906-0.558,5.906-0.663,8.87c-0.045,1.271,1.7,2.269,2.913,1.776
		c1.541-0.625,3.012-1.434,4.572-1.998c1.549-0.56,3.146-1.114,4.767-1.324c8.686-1.13,15.851,1.075,20.078,9.473
		c0.749,1.482,1.694,2.869,2.366,4.382c1.832,4.124,5.163,5.91,9.449,6.217c1.991,0.143,3.999,0.038,5.99,0.182
		c7.521,0.54,13.62-1.935,18.416-7.927c2.272-2.839,5.081-5.273,7.792-7.732c5.724-5.189,12.657-5.705,19.717-4.225
		c3.944,0.827,7.347,3.243,9.445,6.896c1.323,2.299,2.33,4.779,3.42,7.205c0.807,1.797,0.061,3.268-1.295,4.401
		c-1.537,1.286-4.38,1.254-5.485-0.143c-1.226-1.547-2.19-3.3-3.273-4.959c-3.731-5.706-8.479-6.926-14.507-3.881
		c-3.989,2.014-7.022,5.145-9.571,8.607C1099.515,1033.064,1095.188,1043.395,1095.635,1056.724z M1060.146,1032.372
		c-0.563-2.613-0.956-6.276-2.151-9.655c-4.354-12.307-12.464-11.272-19.106-5.865c-4.114,3.351-7.76,7.198-10.272,12.047
		c-3.697,7.127-6.092,14.529-7.619,22.477c-1.278,6.644-0.074,12.539,2.17,18.384c2.496,6.499,6.934,8.684,13.464,6.97
		c2.122-0.558,4.14-2.031,5.868-3.486C1054.843,1062.852,1058.727,1048.734,1060.146,1032.372z M1217.645,1056.898
		c0,2.321-0.354,4.713,0.089,6.946c0.568,2.871,1.361,5.853,2.798,8.366c3.063,5.374,10.556,6.854,15.597,3.083
		c4.519-3.38,8.594-7.344,11.528-12.249c6.482-10.854,9.196-22.596,8.118-35.225c-0.417-4.881-2.449-8.863-5.993-12.178
		c-3.027-2.827-6.34-3.189-10.09-1.603c-4.769,2.017-8.257,5.563-11.229,9.563
		C1221.138,1033.456,1217.097,1044.47,1217.645,1056.898z M1216.643,1122.865c7.786-0.009,11.247-1.316,15.5-5.148
		c3.001-2.704,5.366-5.835,7.107-9.529c3.158-6.701,3.869-14.047,5.829-21.06c0.639-2.285-2.339-4.621-4.512-3.511
		c-4.865,2.488-10.031,2.984-15.367,3.626c-7.21,0.866-14.318,2.523-19.667,8.497c-7.316,8.173-5.458,20.474,4.373,25.219
		C1212.517,1122.22,1215.565,1122.574,1216.643,1122.865z"/>
	<path fill-rule="evenodd" clip-rule="evenodd" fill="#1E4678" d="M673.657,895.92c0-4.324-0.014-8.649,0.005-12.975
		c0.011-2.78,1.81-4.307,4.154-4.938c2.206-0.594,4.565-0.809,6.861-0.839c7.654-0.101,15.33-0.385,22.958,0.063
		c6.052,0.354,10.453-1.674,13.203-6.889c2.666-5.057,6.986-7.846,12.018-9.928c5.175-2.14,10.348-2.089,15.535-0.143
		c1.241,0.466,2.604,0.888,3.587,1.716c5.611,4.729,11.072,5.315,16.494-0.235c11.258-5.426,22.082-2.627,28.87,5.582
		c1.05,1.271,2.033,2.637,2.807,4.088c2.301,4.324,5.831,5.9,10.673,5.761c7.979-0.23,15.972-0.063,23.959-0.049
		c1.996,0.004,4.004-0.065,5.984,0.125c3.521,0.339,6.586,2.938,6.67,6.308c0.208,8.309,0.125,16.63-0.034,24.941
		c-0.041,2.105-1.513,3.806-3.525,4.431c-2.498,0.774-5.118,1.509-7.706,1.583c-7.316,0.213-14.643,0.062-21.964,0.094
		c-1.992,0.01-3.998,0.037-5.971,0.277c-2.362,0.288-4.245,2.239-4.364,4.729c-0.204,4.317-0.362,8.655-0.166,12.967
		c0.202,4.435-0.753,8.628-2.201,12.681c-3.089,8.644-9.941,13.093-18.413,15.164c-3.543,0.866-7.292,0.541-10.706-1.25
		c-2.646-1.389-5.396-2.603-7.958-4.137c-3.214-1.926-6.082-2.217-8.956,0.635c-0.909,0.902-2.243,1.422-3.449,1.974
		c-10.414,4.763-17.505,4.333-27.606-3.905c-4.108-3.35-6.451-8.453-6.716-14.034c-0.205-4.318-0.091-8.651-0.199-12.976
		c-0.058-2.316-0.07-4.668-0.486-6.935c-0.657-3.58-2.448-5.065-6.264-5.122c-8.318-0.123-16.641-0.037-24.96-0.105
		c-2.315-0.018-4.669-0.06-6.934-0.477c-3.604-0.665-5.116-2.488-5.246-6.202c-0.138-3.988-0.03-7.986-0.03-11.979
		C673.605,895.92,673.631,895.92,673.657,895.92z M755.751,909.604c-0.006,0-0.011,0-0.016,0c0-8.306-0.048-16.611,0.016-24.916
		c0.045-5.76-2.426-10.234-6.761-13.786c-4.125-3.376-12.617-3.202-16.705,0.287c-3.979,3.396-6.39,7.594-6.393,12.946
		c-0.01,17.275-0.005,34.551,0.015,51.826c0.001,0.99,0.017,2.029,0.295,2.965c1.589,5.325,4.417,9.887,9.902,11.649
		c7.651,2.46,14.574-1.029,18.083-8.331c1.351-2.812,1.578-5.713,1.57-8.721C755.74,925.55,755.751,917.576,755.751,909.604z
		 M794.091,909.749c0-7.323,0.008-14.646-0.006-21.968c-0.003-1.997,0.047-4.004-0.127-5.987
		c-0.756-8.637-5.759-13.233-14.297-13.212c-0.997,0.002-1.998,0.036-2.99,0.135c-5.316,0.526-10.094,4.797-10.844,10.09
		c-0.744,5.248-1.469,10.54-1.595,15.827c-0.242,10.313-0.239,20.639,0.013,30.951c0.121,4.952,0.755,9.938,1.684,14.807
		c0.77,4.017,2.978,7.242,6.965,9.157c9.797,4.705,20.147-1.019,21.077-11.844c0.171-1.984,0.112-3.991,0.116-5.988
		C794.099,924.395,794.092,917.072,794.091,909.749z"/>
	<path fill-rule="evenodd" clip-rule="evenodd" fill="#32BF5C" d="M947.786,1131.746c-3.554-0.699-7.235-1.015-10.638-2.16
		c-17.754-5.975-20.81-29.948-6.393-42.466c1.742-1.513,3.829-2.628,5.742-3.948c2.715-1.875,3.969-4.41,3.379-7.729
		c-0.232-1.308-0.367-2.661-0.815-3.896c-1.064-2.936-0.989-5.772-0.219-8.8c1.635-6.427,3.094-12.903,4.38-19.408
		c0.369-1.866,0.096-3.938-0.289-5.831c-0.142-0.696-1.565-1.733-2.222-1.613c-2.273,0.416-4.514,1.148-6.681,1.981
		c-10.894,4.184-21.534,2.304-32.117-1.221c-0.622-0.207-1.4-0.437-1.735-0.915c-0.719-1.026-1.742-2.287-1.619-3.332
		c0.125-1.069,1.275-2.356,2.317-2.915c2.498-1.339,5.285-0.884,7.765,0.044c4.856,1.815,9.864,1.613,14.818,1.356
		c9.126-0.474,16.674-4.121,21.652-12.129c1.575-2.535,2.928-5.211,4.528-7.73c1.057-1.658,2.258-3.254,3.601-4.684
		c0.933-0.994,2.403-1.475,3.604-0.59c1.003,0.739,1.884,1.85,2.391,2.986c0.363,0.816,0.183,1.984-0.028,2.934
		c-2.731,12.307-5.509,24.602-8.28,36.898c-0.947,4.206-2.077,8.38-2.785,12.626c-0.433,2.599-0.444,5.321-0.25,7.959
		c0.312,4.159,3.525,7.236,7.765,7.861c10.53,1.552,17.988-2.231,22.938-11.9c1.349-2.636,2.445-5.476,3.158-8.347
		c2.802-11.269,5.409-22.585,8.076-33.887c0.762-3.229,1.317-6.52,2.277-9.688c0.665-2.194,1.639-4.38,2.925-6.265
		c0.592-0.873,2.376-1.563,3.4-1.34c1.063,0.23,2.424,1.546,2.655,2.605c0.406,1.858,0.379,3.958-0.041,5.827
		c-2.325,10.356-4.826,20.675-7.263,31.007c-4.646,19.696-9.402,39.368-13.867,59.105c-1.518,6.71-4.599,12.633-8.958,17.594
		c-4.632,5.27-10.483,9.272-18.072,9.346c-1.665,0.017-3.33,0.003-4.995,0.003C947.855,1131.307,947.822,1131.526,947.786,1131.746z
		 M948.478,1122.867c3.929,0.363,8.064-0.771,11.625-3.501c4.01-3.073,7.429-6.741,9.149-11.618
		c1.438-4.073,2.82-8.182,3.904-12.358c0.575-2.216,0.576-4.608,0.633-6.927c0.056-2.314-1.682-3.642-3.934-3.242
		c-3.254,0.576-6.504,1.186-9.768,1.701c-4.251,0.672-8.528,1.189-12.77,1.911c-5.938,1.01-10.265,4.628-13.797,9.198
		c-3.896,5.04-3.583,14.879,0.864,19.406C937.977,1121.094,942.602,1123.022,948.478,1122.867z"/>
	<path fill-rule="evenodd" clip-rule="evenodd" fill="#32BF5C" d="M287.496,1051.616c0.142-2.994,0.268-5.988,0.432-8.981
		c0.135-2.463,1.148-4.586,3.129-5.992c0.97-0.688,2.495-1.238,3.566-0.987c1.67,0.393,2.81,1.926,2.747,3.731
		c-0.057,1.623-0.634,3.224-0.927,4.844c-1.274,7.064-0.532,13.905,2.329,20.502c3.714,8.563,10.946,13.041,19.56,13.434
		c12.654,0.574,20.873-8.892,21.811-18.871c0.925-9.851-3.303-17.359-9.283-24.4c-3.657-4.305-7.476-8.5-10.819-13.04
		c-5.452-7.406-8.922-15.649-8.102-25.074c0.881-10.118,5.893-17.521,15.427-21.467c16.236-6.724,35.279,2.806,38.283,23.154
		c0.721,4.885,0.404,9.999-0.052,14.95c-0.231,2.512-1.619,5.025-2.932,7.277c-0.509,0.872-2.375,1.57-3.407,1.348
		c-1.06-0.229-2.507-1.592-2.642-2.609c-0.294-2.217-0.185-4.605,0.333-6.788c1.437-6.059,0.771-11.89-1.31-17.635
		c-4.105-11.331-16.188-15.953-26.989-10.413c-2.149,1.102-3.845,2.536-4.994,4.688c-2.936,5.492-4.468,11.161-1.697,17.135
		c1.81,3.9,3.63,7.887,6.103,11.367c3.263,4.592,7.254,8.658,10.777,13.074c4.582,5.741,8.2,11.812,9.924,19.263
		c4.737,20.479-13.088,42.145-37.729,35.674c-11.245-2.953-24.257-16.975-23.423-30.182c0.084-1.326,0.012-2.664,0.012-3.996
		C287.581,1051.619,287.538,1051.617,287.496,1051.616z"/>
	<path fill-rule="evenodd" clip-rule="evenodd" fill="#32BF5C" d="M855.811,1046.789c-0.266-8.054,1.346-15.811,3.558-23.5
		c2.954-10.258,6.311-20.362,12.818-28.984c7.111-9.42,15.413-17.113,27.361-20.517c8.926-2.543,23.524,2.831,28.082,12.08
		c4.184,8.487,4.975,17.1,4.094,26.132c-0.098,0.996-1.381,2.265-2.41,2.692c-1.694,0.704-3.475-0.162-4.177-1.738
		c-0.779-1.748-1.237-3.782-1.256-5.696c-0.039-4.047-0.713-7.924-2.047-11.717c-0.109-0.313-0.13-0.657-0.249-0.965
		c-4.437-11.479-11.795-14.361-23.996-10.572c-7.239,2.249-12.513,7.57-16.845,13.543c-3.888,5.359-6.95,11.203-9.442,17.457
		c-3.861,9.687-6.177,19.741-6.768,29.941c-0.493,8.522,0.854,17.24,5.739,24.809c3.883,6.012,11.799,8.936,19.055,7.66
		c7.708-1.354,13.244-5.756,17.875-11.637c1.436-1.821,2.588-3.861,3.944-5.748c0.764-1.062,1.518-2.27,2.575-2.938
		c1.017-0.641,2.511-1.112,3.621-0.868c1.831,0.402,2.356,2.19,2.419,3.918c0.035,0.979,0.038,2.126-0.417,2.931
		c-5.698,10.061-12.906,18.541-24.391,22.233c-15.081,4.849-26.94-1.214-33.683-13.537
		C857.025,1064.006,855.501,1055.582,855.811,1046.789z"/>
	<path fill-rule="evenodd" clip-rule="evenodd" fill="#1E4678" d="M966.776,584.761c-4.637,0-9.277,0.115-13.908-0.046
		c-2.581-0.09-4.367-1.693-4.863-4.227c-1.785-9.105-4.303-17.99-7.581-26.669c-0.765-2.023-0.268-3.929,1.149-5.535
		c0.875-0.989,1.762-2.021,2.822-2.787c5.896-4.253,11.813-8.477,17.803-12.596c1.334-0.917,2.937-1.522,4.5-2.011
		c2.195-0.688,4.794,0.342,6.073,2.331c0.893,1.387,1.677,2.86,2.361,4.362c5.107,11.196,8.291,22.977,10.385,35.06
		c0.392,2.259,0.287,4.634,0.175,6.942c-0.146,2.967-2.054,5.045-5.005,5.16c-4.631,0.181-9.273,0.048-13.907,0.048
		C966.776,584.783,966.776,584.771,966.776,584.761z"/>
	<path fill-rule="evenodd" clip-rule="evenodd" fill="#1E4678" d="M553.652,584.813c-4.308,0-8.62,0.133-12.921-0.047
		c-2.966-0.123-5.027-2.187-5.121-5.066c-0.106-3.304-0.212-6.675,0.296-9.921c1.896-12.143,5.245-23.837,10.839-34.885
		c2.463-4.863,6.874-5.285,10.753-2.735c6.628,4.358,13.014,9.085,19.512,13.643c2.439,1.712,3.256,4.144,2.903,6.945
		c-0.204,1.616-0.75,3.2-1.242,4.767c-2.079,6.619-4.241,13.188-5.093,20.148c-0.576,4.707-3.372,6.907-7.991,7.244
		c-0.661,0.048-1.326,0.034-1.989,0.035c-3.314,0.003-6.63,0.002-9.945,0.002C553.652,584.899,553.652,584.856,553.652,584.813z"/>
	<path fill-rule="evenodd" clip-rule="evenodd" fill="#1E4678" d="M985.698,607.667c-0.193,5.489-2.847,13.056-4.821,20.737
		c-1.15,4.478-2.982,8.788-4.63,13.127c-0.705,1.855-1.645,3.637-2.614,5.375c-2.16,3.873-4.4,4.59-8.16,2.734
		c-0.596-0.295-1.225-0.543-1.774-0.906c-6.646-4.387-13.333-8.71-19.886-13.233c-2.521-1.739-4.752-4.131-3.406-7.549
		c3.298-8.368,5.152-17.115,7.301-25.798c1.063-4.297,2.507-5.338,7.1-5.426c7.645-0.147,15.296-0.155,22.94-0.032
		C984.448,596.804,985.89,598.444,985.698,607.667z"/>
	<path fill-rule="evenodd" clip-rule="evenodd" fill="#1E4678" d="M882.135,914.592c-4.323,0-8.646,0.053-12.971-0.027
		c-1.644-0.031-3.322-0.201-4.912-0.6c-2.771-0.695-4.699-2.451-5.422-5.289c-0.325-1.275-0.616-2.602-0.63-3.907
		c-0.065-5.986-0.227-11.981,0.026-17.958c0.282-6.7,3.147-9.443,10.096-9.614c8.308-0.204,16.627,0.002,24.941-0.07
		c3.754-0.032,6.492,1.704,8.094,4.846c3.471,6.809,6.716,13.735,9.932,20.67c0.536,1.157,0.54,2.593,0.65,3.911
		c0.247,2.945-1.365,5.57-4.071,6.001c-5.228,0.831-10.488,1.522-15.76,1.985C888.808,914.828,885.461,914.594,882.135,914.592z"/>
	<path fill-rule="evenodd" clip-rule="evenodd" fill="#1E4678" d="M553.726,596.718c4.318,0,8.64-0.108,12.953,0.032
		c3.798,0.124,5.358,1.475,6.444,5.049c0.192,0.633,0.442,1.276,0.474,1.924c0.31,6.412,2.995,12.2,4.718,18.24
		c0.542,1.904,1.268,3.775,1.601,5.716c0.411,2.394-0.185,4.62-2.042,6.36c-0.728,0.682-1.382,1.478-2.205,2.013
		c-6.94,4.513-13.844,9.09-20.907,13.403c-2.898,1.77-4.995,1.179-6.823-1.559c-1.461-2.187-2.89-4.517-3.705-6.99
		c-2.692-8.174-5.152-16.426-7.576-24.685c-0.554-1.886-0.755-3.909-0.866-5.884c-0.813-14.45-1.091-13.707,12.952-13.688
		c1.664,0.002,3.322,0,4.983,0C553.726,596.673,553.726,596.695,553.726,596.718z"/>
	<path fill-rule="evenodd" clip-rule="evenodd" fill="#1E4678" d="M636.012,914.594c-6.754,0.514-14.97-0.27-23.118-1.854
		c-4.091-0.795-5.727-3.345-4.395-7.18c1.192-3.433,2.635-6.785,4.096-10.116c1.595-3.64,3.717-7.092,4.924-10.846
		c1.712-5.323,5.499-7.303,10.502-7.402c8.617-0.171,17.243-0.157,25.86,0.014c4.687,0.094,7.691,2.868,7.809,7.291
		c0.206,7.62,0.104,15.25,0.022,22.876c-0.032,2.959-1.614,5.069-4.46,5.894c-2.195,0.636-4.486,1.163-6.757,1.267
		C646.194,914.734,641.877,914.594,636.012,914.594z"/>
	<path fill-rule="evenodd" clip-rule="evenodd" fill="#1E4678" d="M961.391,856.631c-0.065,1.25,0.046,1.958-0.157,2.559
		c-1.801,5.315-3.458,10.692-5.535,15.9c-4.457,11.155-13.199,18.863-21.964,26.485c-1.217,1.058-2.861,1.634-4.328,2.392
		c-1.743,0.901-3.294,0.246-4.5-0.955c-1.156-1.147-2.296-2.455-2.973-3.91c-3.205-6.897-6.256-13.865-9.346-20.816
		c-0.864-1.944-0.789-3.895,0.35-5.693c1.056-1.668,2.042-3.456,3.422-4.824c3.106-3.083,5.608-6.543,7.268-10.563
		c1.441-3.494,4.413-5.394,7.672-5.542c7.908-0.359,15.853-0.104,23.773,0.164c1.515,0.053,3.146,1.087,4.429,2.057
		C960.463,854.609,960.952,855.959,961.391,856.631z"/>
	<path fill-rule="evenodd" clip-rule="evenodd" fill="#1E4678" d="M576.625,851.271c2.997,0,5.997-0.074,8.991,0.018
		c5.398,0.164,9.698,2.281,12.033,7.396c1.821,3.991,4.149,7.589,7.454,10.5c3.179,2.803,3.762,6.469,2.317,10.032
		c-2.993,7.39-6.346,14.644-9.819,21.824c-1.884,3.896-4.585,4.476-8.169,2.231c-7.127-4.462-13.142-10.079-17.999-16.996
		c-4.437-6.316-8.012-13.009-10.221-20.417c-0.284-0.955-0.854-1.851-0.998-2.817c-1.052-7.049-1.805-11.732,9.416-11.787
		c2.332-0.01,4.663,0,6.994,0V851.271z"/>
	<path fill-rule="evenodd" clip-rule="evenodd" fill="#1E4678" d="M961.99,516.492c-0.913,1.402-1.53,3.072-2.718,4.041
		c-4.366,3.562-8.882,6.949-13.429,10.282c-2.405,1.763-4.911,3.426-7.518,4.871c-4.178,2.317-6.559,2.005-9.861-1.228
		c-5.47-5.353-10.844-10.803-16.265-16.205c-2.133-2.127-2.753-4.562-1.228-7.234c4.449-7.783,8.88-15.581,13.518-23.254
		c1.881-3.118,4.448-3.641,7.719-1.67c8.607,5.188,15.994,11.854,22.557,19.428c1.953,2.254,3.724,4.681,5.434,7.127
		C960.93,513.693,961.305,514.986,961.99,516.492z"/>
	<path fill-rule="evenodd" clip-rule="evenodd" fill="#1E4678" d="M590.781,484.839c1.172,0.397,2.262,0.503,2.989,1.072
		c1.293,1.012,2.658,2.13,3.481,3.51c4.072,6.824,8.104,13.681,11.88,20.671c1.531,2.833,1.069,5.811-1.356,8.231
		c-5.641,5.626-11.229,11.305-16.942,16.856c-2.366,2.301-5.52,2.739-8.221,0.905c-7.12-4.835-14.142-9.824-21.08-14.918
		c-2.067-1.518-2.368-4.041-1.575-6.364c0.632-1.854,1.512-3.789,2.797-5.228c7.515-8.413,15.089-16.795,24.617-23.063
		C588.448,485.804,589.698,485.361,590.781,484.839z"/>
	<path fill-rule="evenodd" clip-rule="evenodd" fill="#32BF5C" d="M727.999,1010.703c0.058,3.321-0.44,5.561-2.519,7.075
		c-1.733,1.264-3.824,1.576-5.674,0.673c-2.592-1.27-3.649-3.796-3.744-6.569c-0.102-2.97,3.121-6.365,6.219-6.845
		c1.796-0.278,4.149,0.965,4.865,2.74C727.633,1008.982,727.881,1010.283,727.999,1010.703z"/>
	<path fill-rule="evenodd" clip-rule="evenodd" fill="#1E4678" d="M685.22,609.383c0,3.974,0.291,7.975-0.081,11.912
		c-0.374,3.951-2.655,5.854-6.648,5.912c-6.959,0.104-13.924,0.094-20.878-0.104c-3.49-0.1-5.555-2.198-5.604-5.715
		c-0.127-9.28-0.484-18.594,0.143-27.834c0.459-6.757,3.223-12.773,10.057-15.993c5.602-2.641,10.886-2.057,15.512,2.081
		c3.321,2.971,5.27,6.624,6.298,10.993C685.482,596.84,685.572,603.089,685.22,609.383z M661.69,602.947c-0.014,0-0.026,0-0.039,0
		c0,3.655-0.157,7.318,0.05,10.962c0.168,2.962,2.18,4.657,5.295,4.936c0.989,0.089,1.995,0.082,2.988,0.022
		c3.582-0.214,5.679-2.014,5.782-5.527c0.176-5.979,0.232-11.977-0.036-17.949c-0.101-2.225-0.982-4.537-1.987-6.573
		c-2.148-4.355-6.626-4.889-9.614-1.124c-1.172,1.477-2.124,3.452-2.334,5.296C661.422,596.271,661.69,599.624,661.69,602.947z"/>
	<path fill-rule="evenodd" clip-rule="evenodd" fill="#1E4678" d="M867.941,607.789c0,4.988,0.106,9.98-0.041,14.966
		c-0.085,2.847-1.501,4.256-4.424,4.313c-7.315,0.146-14.638,0.198-21.952,0.046c-3.475-0.072-5.554-2.216-5.602-5.755
		c-0.126-9.315-0.23-18.641,0.067-27.948c0.166-5.119,2.51-9.722,6.036-13.361c5.071-5.237,12.755-5.829,18.909-0.96
		c4.358,3.447,6.996,7.99,7.055,13.725c0.048,4.99,0.009,9.982,0.009,14.974C867.979,607.788,867.961,607.788,867.941,607.789z
		 M859.626,604.923c0.037,0,0.074,0,0.114,0c0-2.982,0.221-5.987-0.075-8.94c-0.226-2.248-0.954-4.488-1.743-6.628
		c-0.848-2.296-2.505-3.978-5.11-4.116c-2.594-0.137-4.336,1.502-5.681,3.454c-0.725,1.057-1.121,2.366-1.55,3.603
		c-2.348,6.771-1.475,13.766-1.203,20.683c0.112,2.796,3.178,5.419,6.023,5.787c1.304,0.169,2.651,0.171,3.964,0.065
		c3.021-0.243,5.035-2.053,5.22-4.968C859.772,610.894,859.626,607.904,859.626,604.923z"/>
</g>
</svg>
